<svg xmlns="http://www.w3.org/2000/svg" viewBox="0 0 1080 1080">
  <circle cx="540" cy="540" r="540" fill="#65A4BD"/>
  <path fill="#F2FAF8" d="M515 454v266c0 9 1 8-8 8l-88 1c-4 0-6-2-7-5l-80-161-35-81-2-5h-2v8l7 58c8 60 4 120 5 180 1 4-1 6-5 6h-84c-5 0-5-3-5-6V354h6l90-1c4 0 6 2 8 5l80 161 34 81 2 5h2l-1-10-5-45c-4-32-6-63-6-95v-96c0-4 1-6 6-6h82c5 0 7 2 7 7l-1 94zm368 65c-12 40-40 65-78 79-23 8-46 12-70 11h-31l-6 1v112c0 5-1 7-6 7h-87c-5 0-7-2-7-7l1-362c0-6 0-6 6-6h145c29 1 58 7 84 21 29 17 47 42 52 76 3 22 2 45-3 68m-106-75c-8-6-17-10-28-10l-50-2-1 1v95l4 3a863 863 0 0 0 51-2c18-4 31-14 35-33 2-8 2-17 2-25 0-11-4-20-13-27z"/>
</svg>
